<svg width="375" height="260" viewBox="0 0 375 260" fill="none" xmlns="http://www.w3.org/2000/svg">
<path d="M165.509 85.5149C170.815 85.5149 175.51 86.5657 179.553 88.7122H179.552C182.385 90.1834 184.781 91.9855 186.725 94.1233V86.5315H211.572V159.978H186.725V152.31C184.725 154.481 182.284 156.313 179.413 157.803L179.412 157.802C175.37 159.945 170.68 160.995 165.379 160.995C159.236 160.995 153.609 159.453 148.528 156.363L148.514 156.355C143.433 153.176 139.41 148.722 136.441 143.031L136.436 143.021L136.43 143.011C133.544 137.217 132.119 130.579 132.119 123.128C132.119 115.678 133.544 109.079 136.434 103.365L136.437 103.359L136.441 103.351C139.411 97.6579 143.438 93.2422 148.528 90.1467C153.612 87.0545 159.283 85.5149 165.509 85.5149ZM258.564 86.5315V159.978H233.716V86.5315H258.564ZM305.584 63.3948V93.9075C307.649 91.8156 310.147 90.0761 313.065 88.6877C317.172 86.7337 321.758 85.7688 326.798 85.7688C335.454 85.7688 342.508 88.5897 347.827 94.2971H347.828C353.156 99.9293 355.748 107.645 355.748 117.28V159.978H331.031V120.203C331.031 115.68 329.832 112.342 327.592 110.013C325.344 107.674 322.297 106.457 318.307 106.457C314.318 106.457 311.271 107.674 309.022 110.013C306.783 112.342 305.584 115.68 305.584 120.203V159.978H280.736V63.3948H305.584ZM172.042 106.965C167.932 106.965 164.463 108.402 161.563 111.302L161.562 111.301C158.806 114.06 157.358 117.946 157.358 123.128C157.358 128.296 158.8 132.278 161.569 135.214C164.467 138.11 167.935 139.544 172.042 139.544C176.15 139.544 179.569 138.109 182.377 135.221L182.389 135.208C185.239 132.358 186.725 128.426 186.725 123.255C186.725 118.085 185.239 114.152 182.389 111.302L182.383 111.295L182.377 111.289C179.569 108.401 176.15 106.965 172.042 106.965ZM246.206 55.6399C250.29 55.6399 253.736 56.8636 256.436 59.3811L256.695 59.6125C259.326 62.0232 260.654 65.0866 260.654 68.717C260.654 72.3886 259.232 75.5188 256.454 78.0364L256.453 78.0374C253.746 80.4833 250.294 81.6672 246.206 81.6672C242.038 81.6672 238.505 80.4879 235.714 78.052L235.697 78.0374L235.68 78.0217C232.993 75.4995 231.627 72.3733 231.627 68.717C231.627 64.9856 232.986 61.8463 235.696 59.3967C238.487 56.8682 242.025 55.6399 246.206 55.6399Z" fill="white" stroke="#1B7691" stroke-width="2.50846"/>
<path d="M157.608 184.746C162.849 184.746 167.488 185.768 171.486 187.856H171.487C174.283 189.287 176.653 191.04 178.577 193.119V185.737H203.179V257.381H178.577V249.924C176.602 252.032 174.194 253.807 171.367 255.255L171.368 255.256C167.367 257.348 162.725 258.372 157.479 258.372C151.405 258.372 145.839 256.87 140.813 253.857L140.806 253.853L140.799 253.849C135.772 250.749 131.789 246.406 128.85 240.854L128.844 240.844L128.839 240.833C125.981 235.18 124.57 228.703 124.57 221.435C124.57 214.167 125.98 207.728 128.842 202.153L128.85 202.14C131.791 196.585 135.777 192.279 140.813 189.261C145.842 186.246 151.451 184.746 157.608 184.746ZM327.683 184.746C332.925 184.746 337.563 185.768 341.561 187.856H341.562C344.359 189.287 346.728 191.04 348.652 193.119V185.737H373.254V257.381H348.652V249.924C346.677 252.032 344.27 253.807 341.442 255.255L341.443 255.256C337.443 257.348 332.8 258.372 327.554 258.372C321.48 258.372 315.915 256.87 310.888 253.857L310.881 253.853L310.874 253.849C305.847 250.749 301.864 246.406 298.925 240.854L298.919 240.844L298.914 240.833C296.056 235.18 294.645 228.703 294.645 221.435C294.645 214.167 296.055 207.728 298.917 202.153L298.925 202.14C301.866 196.585 305.852 192.279 310.888 189.261C315.918 186.246 321.526 184.746 327.683 184.746ZM164.068 205.715C160.001 205.715 156.571 207.115 153.707 209.938L153.708 209.938C150.989 212.621 149.559 216.396 149.559 221.435C149.559 226.465 150.985 230.338 153.723 233.194C156.584 236.007 160.008 237.402 164.068 237.402C168.134 237.402 171.514 236.002 174.286 233.191L174.293 233.186L174.299 233.18C177.111 230.408 178.577 226.586 178.577 221.559C178.576 216.531 177.111 212.71 174.299 209.938L174.286 209.926C171.514 207.115 168.134 205.715 164.068 205.715ZM334.143 205.715C330.076 205.715 326.646 207.115 323.783 209.938L323.784 209.938C321.064 212.621 319.634 216.396 319.634 221.435C319.634 226.465 321.06 230.338 323.798 233.194C326.659 236.007 330.084 237.402 334.143 237.402C338.209 237.402 341.589 236.002 344.362 233.191L344.369 233.186L344.374 233.18C347.186 230.408 348.652 226.586 348.652 221.559C348.652 216.531 347.186 212.71 344.374 209.938L344.362 209.926C341.589 207.115 338.209 205.715 334.143 205.715ZM282.861 236.055C282.861 240.369 281.568 244.266 278.995 247.704L278.996 247.705C276.506 251.066 272.899 253.667 268.26 255.55L268.261 255.551C263.685 257.444 258.391 258.372 252.407 258.372C245.981 258.372 240.212 257.317 235.123 255.177C230.054 253.045 225.996 250.12 223.002 246.379L222.994 246.368C220.004 242.546 218.315 238.264 217.951 233.55L217.846 232.199H242.162L242.284 233.318C242.501 235.337 243.461 236.966 245.257 238.258C247.074 239.564 249.346 240.252 252.148 240.252C254.775 240.252 256.593 239.776 257.764 238.988C259.032 238.11 259.55 237.108 259.55 235.931C259.55 235.181 259.352 234.594 258.992 234.109C258.621 233.612 258.018 233.143 257.087 232.75L257.05 232.734C255.018 231.799 251.636 230.748 246.835 229.597V229.598C241.636 228.434 237.275 227.223 233.764 225.96L233.751 225.956L233.74 225.951C230.112 224.56 226.978 222.425 224.349 219.557L224.342 219.55L224.336 219.543C221.586 216.451 220.273 212.369 220.273 207.435C220.273 203.217 221.469 199.373 223.856 195.939L223.861 195.934C226.342 192.408 229.901 189.673 234.466 187.698L234.474 187.695C239.142 185.715 244.614 184.746 250.856 184.746C260.087 184.746 267.507 186.938 272.967 191.472H272.968C278.492 195.987 281.657 201.993 282.466 209.404L282.618 210.795H259.718L259.563 209.72C259.265 207.646 258.317 206.048 256.699 204.849L256.687 204.841L256.676 204.832C255.148 203.646 253.035 202.989 250.21 202.989C247.76 202.989 246.078 203.464 244.998 204.24L244.978 204.255L244.956 204.269C243.931 204.945 243.454 205.832 243.453 207.062C243.453 207.812 243.652 208.417 244.023 208.929C244.402 209.452 245.012 209.948 245.942 210.378C248.06 211.314 251.4 212.284 256.027 213.27L256.047 213.274L256.067 213.279C261.423 214.605 265.823 215.938 269.249 217.284L269.913 217.542C273.195 218.875 276.067 220.971 278.524 223.807C281.365 226.894 282.77 231.016 282.861 236.032V236.055Z" fill="#1B7691" stroke="white" stroke-width="2.50846"/>
<path d="M41.8927 21.7283L29.4464 41.6433L19.4562 79.1042L49.1915 96.45H74.8097L75.0372 96.5427C76.7931 97.2589 78.348 97.1482 79.8019 96.4353C81.3087 95.6965 82.782 94.2708 84.1954 92.2312C87.0252 88.1475 89.3515 81.9928 91.1915 75.491C93.0231 69.0187 94.3409 62.3221 95.2013 57.2341C95.6311 54.6924 95.9462 52.5568 96.1534 51.0583C96.257 50.3095 96.3333 49.7195 96.3839 49.3181C96.3923 49.2517 96.3994 49.1905 96.4064 49.1345L76.5021 16.7849L41.8927 21.7283ZM101.53 72.1042L101.511 72.2136L100.276 71.9929L101.51 72.2136V72.2195C101.509 72.2229 101.508 72.2278 101.507 72.2341C101.505 72.2477 101.501 72.2684 101.496 72.2947C101.487 72.3472 101.472 72.4249 101.453 72.5261C101.416 72.7289 101.361 73.0266 101.289 73.408C101.145 74.1715 100.933 75.2714 100.662 76.6179C100.12 79.3104 99.3404 82.9951 98.3898 86.9597C97.4397 90.9219 96.3153 95.1779 95.0831 99.0095C93.9819 102.434 92.7711 105.59 91.4913 107.9L129.562 158.66L131.068 160.667H108.765L101.398 175.4L100.429 177.339L99.2306 175.533L59.6681 115.917H52.4113V177.9L50.2638 175.719L33.4884 158.693L18.9503 175.656L16.7443 178.23V77.5232L17.2101 77.7947L27.0714 40.8152L27.1193 40.6335L27.2189 40.4744L40.0753 19.905L40.3839 19.4099L40.9611 19.3279L76.963 14.1853L77.1154 15.2595L78.0275 14.5398L83.1652 19.6824L83.2941 19.8123L83.381 19.9734L83.382 19.9744C83.3823 19.975 83.3823 19.9761 83.3829 19.9773C83.3843 19.9798 83.3871 19.9831 83.3898 19.988C83.3951 19.9979 83.4028 20.0126 83.4132 20.032C83.4343 20.0711 83.4658 20.1296 83.507 20.2058C83.5892 20.3582 83.7104 20.5832 83.8663 20.8718C84.1781 21.449 84.629 22.2817 85.1827 23.3054C86.2905 25.3534 87.8125 28.1645 89.4698 31.2166C91.9569 35.7967 94.7453 40.9147 96.8956 44.8123L98.799 48.238L98.9054 48.4294L98.9415 48.6462L101.513 64.073L101.53 64.1755V72.1042Z" fill="white" stroke="#1B7691" stroke-width="2.50846"/>
<path d="M59.4902 1.80664C60.8257 1.07035 62.4526 1.07044 63.7881 1.80664L63.79 1.80762L75.0059 7.96973L75.2812 8.12012L75.5947 8.12402L88.4492 8.28418H88.4512C89.8955 8.30046 91.2193 9.00464 92.0166 10.1455L92.1689 10.3799L98.7324 21.2129L98.8975 21.4863L99.1738 21.6475L110.23 28.083V28.084C111.543 28.8501 112.346 30.2224 112.363 31.6924V31.6934L112.521 44.2988L112.525 44.624L112.688 44.9062L118.979 55.8945V55.8955C119.721 57.1874 119.721 58.7599 118.979 60.0518V60.0537L112.687 71.0469L112.525 71.3291L112.521 71.6543L112.363 84.2539V84.2549C112.346 85.7268 111.542 87.1019 110.233 87.8613L110.232 87.8623L99.1738 94.2998L98.8975 94.4609L98.7324 94.7344L92.1699 105.571C91.3951 106.847 89.9899 107.652 88.4512 107.669H88.4502L75.5947 107.823L75.2812 107.827L75.0059 107.979L63.791 114.145C62.454 114.877 60.8243 114.877 59.4873 114.145L48.2734 107.979L47.998 107.827L47.6836 107.823L34.8291 107.669H34.8281C33.2893 107.652 31.8832 106.847 31.1084 105.571L24.5469 94.7344L24.3809 94.4609L24.1045 94.2998L13.0469 87.8623L13.0449 87.8613L12.8057 87.7119C11.6389 86.9297 10.9312 85.6348 10.915 84.2549V84.2539L10.7578 71.6543L10.7529 71.3291L10.5918 71.0469L4.2998 60.0537L4.29883 60.0518L4.16895 59.8066C3.56072 58.5646 3.60386 57.1067 4.29883 55.8955L4.2998 55.8945L10.5918 44.9062L10.7529 44.624L10.7578 44.2988L10.915 31.6934V31.6924C10.9323 30.2229 11.7337 28.8502 13.0459 28.084L13.0469 28.085L24.1045 21.6475L24.3809 21.4863L24.5469 21.2129L31.1094 10.3799C31.8831 9.10181 33.2873 8.30149 34.8281 8.28418H34.8291L47.6846 8.12402L47.998 8.12012L48.2725 7.96973L59.4883 1.80762L59.4902 1.80664ZM61.6396 24.168C59.0955 24.168 56.7524 25.5522 55.5557 27.7754L48.7695 40.376L34.4346 42.8096C31.9251 43.2335 29.8517 44.985 29.0547 47.3828L29.0537 47.3857C28.2628 49.7861 28.89 52.4141 30.6719 54.2148L30.6729 54.2158L40.7988 64.4268L38.7324 78.5166C38.3644 81.0174 39.4447 83.4992 41.5107 84.9707C43.5744 86.4405 46.2919 86.6673 48.5781 85.5645L48.5791 85.5654L61.6387 79.2725L74.6992 85.5645C76.9856 86.6679 79.7036 86.4406 81.7676 84.9707C83.7693 83.545 84.8459 81.1709 84.5762 78.75L84.5459 78.5156L82.4795 64.4268L92.6064 54.2158L92.6074 54.2148C94.3891 52.4141 95.0155 49.786 94.2246 47.3857L94.2236 47.3828L94.1455 47.1602C93.2969 44.8764 91.2745 43.2199 88.8428 42.8096H88.8438L74.5078 40.376L67.7227 27.7754C66.5259 25.5524 64.1836 24.1681 61.6396 24.168Z" fill="#FB991A" stroke="#1B7691" stroke-width="2.50846"/>
</svg>
